# xmcd
#
# Track frame offsets:
#	150
#	15707
#	32580
#	47392
#	59980
#	66505
#	81285
#	96400
#	110290
#	121750
#	136620
#	151660
#	168135
#	188222
#
# Disc length: 2684 seconds
#
# Revision: 0
# Processed by: cddbd v1.5.2PL0 Copyright (c) Steve Scherf et al.
# Submitted via: EasyCDDAExtractor 12.1.0.1
#
DISCID=b00a7a0e
DTITLE=SD BOYS - POPOZUDA DO PLANETA-2000/01/05/2010
DYEAR=2000
DGENRE=FUNK
TTITLE0=POPOZUDA DO PLANETA (BY DJ GILMAR SINISTRO)
TTITLE1=GRITO DE GUERRA (BY DJ GILMAR SINISTRO)
TTITLE2=PLAYBOY BOLADO (BY DJ GILMAR SINISTRO)
TTITLE3=PEGA NA TCHECA (BY DJ GILMAR SINISTRO)
TTITLE4=CALDEIRÃO (BY DJ GILMAR SINISTRO)
TTITLE5=NO SWING (BY DJ GILMAR SINISTRO)
TTITLE6=SÓ UMA IDEIA (BY DJ GILMAR SINISTRO)
TTITLE7=O EMBRULHO (BY DJ GILMAR SINISTRO)
TTITLE8=MOTOCA (BY DJ GILMAR SINISTRO)
TTITLE9=CANDIDATO (BY DJ GILMAR SINISTRO)
TTITLE10=JUVENAL (BY DJ GILMAR SINISTRO)
TTITLE11=GRINGA MANEIRA (ARABE)(BY DJ GILMAR SINISTRO)
TTITLE12=MEDLEY-MORAL MAL-PEGA NA MINHA (BY DJ GILMAR SINISTRO)
TTITLE13=TÔ BOLADO (BY DJ GILMAR SINISTRO)
EXTD=
EXTT0=
EXTT1=
EXTT2=
EXTT3=
EXTT4=
EXTT5=
EXTT6=
EXTT7=
EXTT8=
EXTT9=
EXTT10=
EXTT11=
EXTT12=
EXTT13=
PLAYORDER=
